<?xml version="1.0" standalone="no"?>
<!DOCTYPE svg PUBLIC "-//W3C//DTD SVG 20010904//EN"
 "http://www.w3.org/TR/2001/REC-SVG-20010904/DTD/svg10.dtd">
<svg version="1.0" xmlns="http://www.w3.org/2000/svg"
 width="1500.000000pt" height="1500.000000pt" viewBox="0 0 1500.000000 1500.000000"
 preserveAspectRatio="xMidYMid meet">
<metadata>
Created by potrace 1.14, written by Peter Selinger 2001-2017
</metadata>
<g transform="translate(0.000000,1500.000000) scale(0.100000,-0.100000)"
fill="#000000" stroke="none">
<path d="M0 7500 l0 -7500 7500 0 7500 0 0 7500 0 7500 -7500 0 -7500 0 0
-7500z m3170 3309 c0 -5 20 -56 44 -112 24 -56 85 -201 136 -322 51 -121 114
-272 140 -335 83 -197 624 -1489 685 -1635 45 -107 111 -265 144 -345 15 -36
78 -185 139 -331 61 -146 177 -423 258 -615 81 -192 157 -374 169 -404 51
-123 369 -882 430 -1024 117 -275 203 -414 335 -547 69 -69 103 -94 177 -132
151 -75 198 -82 563 -82 257 0 335 3 425 18 366 60 654 180 915 380 426 327
744 862 1010 1695 l52 163 52 -3 c48 -3 51 -4 48 -28 -2 -14 -93 -387 -203
-830 -110 -443 -239 -964 -286 -1157 l-87 -353 -2228 0 -2228 0 0 55 0 55 73
0 c263 0 422 82 476 247 21 62 23 86 22 262 l-2 193 -44 107 c-98 236 -319
775 -373 908 l-57 143 -1186 0 -1186 0 -21 -52 c-11 -29 -45 -111 -74 -183
-30 -71 -133 -317 -228 -545 -278 -668 -254 -599 -254 -720 -1 -91 2 -111 22
-148 63 -119 196 -191 380 -208 l72 -7 0 -53 0 -54 -640 0 -640 0 0 53 0 53
75 12 c96 15 171 42 261 93 204 117 318 262 437 554 24 61 183 441 352 845
169 404 318 760 330 790 12 30 71 170 130 310 59 140 122 291 140 335 18 44
96 231 173 415 77 184 246 589 376 898 l235 564 -24 61 c-13 34 -51 127 -83
207 -33 80 -78 189 -101 243 -73 179 -142 271 -255 342 -115 73 -234 106 -428
120 l-98 7 0 48 c0 25 3 50 7 53 11 12 1443 8 1443 -4z m6457 -1 c5 -7 44
-101 86 -208 42 -107 110 -283 152 -390 42 -107 110 -280 150 -385 41 -104
110 -282 155 -395 45 -113 95 -241 112 -285 44 -116 168 -432 325 -830 30 -77
88 -225 128 -330 41 -104 110 -282 155 -395 45 -113 94 -239 110 -280 15 -41
63 -163 105 -270 43 -107 101 -256 130 -330 183 -471 228 -586 235 -594 4 -4
11 3 15 15 4 13 124 337 267 719 143 382 359 961 480 1285 121 325 392 1051
603 1615 211 564 386 1035 390 1048 l6 22 744 0 c831 0 755 7 752 -70 -2 -35
-2 -35 -52 -38 -156 -7 -290 -24 -338 -42 -102 -38 -166 -129 -187 -268 -7
-45 -10 -900 -8 -2627 3 -2364 5 -2564 20 -2614 37 -119 104 -185 219 -217 30
-8 120 -17 202 -21 l147 -6 0 -31 c0 -17 -3 -41 -6 -53 l-6 -23 -1034 0 -1034
0 0 53 0 54 148 6 c284 12 388 82 422 287 7 45 10 848 8 2659 l-3 2595 -489
-1305 c-268 -717 -538 -1437 -599 -1599 -61 -162 -116 -311 -123 -330 -18 -50
-520 -1395 -544 -1455 -10 -27 -46 -124 -80 -215 -33 -91 -74 -199 -90 -240
-16 -41 -62 -165 -103 -275 -42 -110 -78 -208 -82 -217 -6 -14 -19 -18 -64
-18 l-58 0 -183 478 c-101 262 -207 538 -236 612 -29 74 -121 313 -204 530
-83 217 -173 451 -200 520 -57 146 -216 557 -300 780 -32 85 -76 200 -98 255
-21 55 -83 215 -137 355 -54 140 -122 318 -152 395 -30 77 -76 196 -102 265
-26 69 -71 184 -99 255 -27 72 -87 227 -132 345 -45 118 -102 266 -126 327
-24 62 -58 150 -75 195 -17 46 -35 87 -40 92 -5 6 -9 -630 -9 -1482 l0 -1492
-55 0 -55 0 0 1613 0 1614 -55 60 c-105 117 -204 157 -428 175 -75 6 -140 8
-143 5 -4 -3 82 -270 190 -592 108 -323 196 -591 196 -596 0 -6 -23 -9 -52 -7
-59 3 -46 -18 -132 213 -209 563 -468 823 -921 924 -201 45 -670 62 -1160 42
-528 -22 -743 -68 -859 -185 -87 -86 -81 12 -84 -1313 l-2 -1173 557 0 c445 0
578 3 658 15 286 43 456 146 553 334 79 151 111 330 120 676 l7 230 53 3 52 3
0 -1365 0 -1366 -55 0 -55 0 0 199 c0 667 -107 938 -421 1072 -174 74 -336 88
-1006 89 l-463 0 -1 -1052 c-1 -1026 -1 -1052 -19 -1013 -18 41 -225 528 -320
755 -29 69 -72 170 -95 225 -24 55 -54 127 -68 160 -13 33 -110 264 -216 513
l-191 453 0 1162 c0 684 -4 1197 -10 1246 -14 126 -35 177 -94 237 -40 39 -67
56 -116 72 -75 25 -185 41 -282 42 l-68 0 0 55 0 55 2879 0 c2291 0 2881 -3
2888 -12z"/>
<path d="M2740 9543 c-29 -71 -103 -252 -130 -313 -11 -25 -50 -117 -86 -205
-175 -420 -282 -679 -529 -1270 -365 -873 -355 -849 -355 -857 0 -5 509 -8
1131 -8 901 0 1130 3 1126 13 -22 54 -204 493 -340 817 -91 217 -240 575 -332
795 -92 220 -178 425 -190 455 -98 238 -258 617 -264 623 -5 5 -19 -18 -31
-50z"/>
</g>
</svg>
